<?xml version="1.0" standalone="no"?><!DOCTYPE svg PUBLIC "-//W3C//DTD SVG 1.1//EN" "http://www.w3.org/Graphics/SVG/1.1/DTD/svg11.dtd"><svg t="1552281428531" class="icon" style="" viewBox="0 0 1024 1024" version="1.1" xmlns="http://www.w3.org/2000/svg" p-id="8293" xmlns:xlink="http://www.w3.org/1999/xlink" width="200" height="200"><defs><style type="text/css"></style></defs><path d="M548 273.6h-2.4C568 312 594.4 343.2 624 368.8c35.2-27.2 62.4-58.4 83.2-95.2H548z" fill="#459df5" p-id="8294"></path><path d="M512 12.8c-236.8 0-428.8 200-428.8 447.2 0 198.4 277.6 472.8 386.4 540 26.4 16 59.2 16 85.6 0 108.8-66.4 386.4-340.8 386.4-540C940.8 212.8 748.8 12.8 512 12.8zM424 671.2c-64.8 8-126.4 16.8-183.2 26.4l-9.6-55.2c38.4-4.8 103.2-13.6 195.2-26.4-1.6 19.2-2.4 37.6-2.4 55.2z m319.2 55.2c-128.8-33.6-224.8-55.2-288-64l19.2-56.8c40 8 103.2 22.4 190.4 43.2 43.2 9.6 74.4 16 95.2 19.2l-16.8 58.4zM514.4 549.6l16.8-55.2c38.4 8 88.8 19.2 152.8 33.6 24 6.4 42.4 11.2 55.2 14.4L720 601.6c-56.8-16.8-124.8-34.4-205.6-52z m290.4-95.2c-6.4 19.2-11.2 35.2-14.4 48-72.8-19.2-128.8-40.8-166.4-64-40 24-99.2 48-178.4 71.2-6.4-19.2-14.4-38.4-24-56.8 60-12.8 111.2-30.4 152.8-52.8-24-22.4-45.6-48.8-64-78.4-12.8 17.6-28.8 36-48 55.2L440 332.8c-40 61.6-79.2 119.2-119.2 171.2l100-9.6v4.8c-3.2 14.4-4.8 31.2-4.8 50.4-71.2 6.4-124 12-157.6 16.8L240 514.4l2.4-2.4c16-12.8 28-24.8 36-36s19.2-28 33.6-50.4c8-12.8 14.4-22.4 19.2-28.8-32 1.6-60 4-85.6 7.2L228 352c12.8-11.2 22.4-24 28.8-38.4 30.4-51.2 56.8-103.2 80.8-157.6l61.6 21.6c-11.2 17.6-26.4 43.2-45.6 76-25.6 43.2-44.8 73.6-56.8 92.8l66.4-2.4c3.2-4.8 7.2-12 12-21.6 9.6-16 16.8-27.2 21.6-33.6l48 24c46.4-49.6 78.4-100.8 97.6-155.2l64 9.6c-9.6 16-18.4 32.8-26.4 50.4H776v55.2c-33.6 58.4-66.4 100.8-100 126.4 36.8 20.8 80.8 36 133.6 45.6-1.6 1.6-3.2 4.8-4.8 9.6z" fill="#459df5" p-id="8295"></path></svg>