<?xml version="1.0" standalone="no"?><!DOCTYPE svg PUBLIC "-//W3C//DTD SVG 1.1//EN" "http://www.w3.org/Graphics/SVG/1.1/DTD/svg11.dtd"><svg t="1552281963314" class="icon" style="" viewBox="0 0 1024 1024" version="1.1" xmlns="http://www.w3.org/2000/svg" p-id="13501" xmlns:xlink="http://www.w3.org/1999/xlink" width="200" height="200"><defs><style type="text/css"></style></defs><path d="M512 0C229.216 0 0 229.216 0 512c0 282.768 229.216 512 512 512 282.752 0 512-229.232 512-512C1024 229.216 794.752 0 512 0zM512 992C246.896 992 32 777.088 32 512 32 246.896 246.896 32 512 32c265.056 0 480 214.896 480 480C992 777.088 777.056 992 512 992z" p-id="13502" fill="#1296db"></path><path d="M512 416c-53.024 0-96 42.976-96 96 0 53.008 42.976 96 96 96 53.008 0 96-42.992 96-96C608 458.976 565.008 416 512 416zM512 576c-35.36 0-64-28.656-64-64 0-35.344 28.64-64 64-64 35.344 0 64 28.656 64 64C576 547.344 547.344 576 512 576z" p-id="13503" fill="#1296db"></path><path d="M810.24 405.12c1.744-8.16 0.32-16.16-3.536-22.72l-35.024-60.8c-3.84-6.56-10.08-11.84-17.92-14.4-7.84-2.56-16-1.92-23.04 1.28l-41.44 18.72c-29.44-28.16-65.6-49.44-105.92-61.12L578.88 220.8c-0.8-7.68-4.176-15.04-10.4-20.48-6.08-5.6-13.76-8.32-21.44-8.32l-70.08 0c-7.68 0-15.36 2.72-21.44 8.32-6.08 5.44-9.616 12.8-10.4 20.48l-4.48 45.28c-40.32 11.68-76.464 32.96-105.92 61.12l-41.44-18.72c-6.88-3.2-15.024-3.84-22.88-1.28-8 2.56-14.08 7.84-17.92 14.4l-35.024 60.8c-3.84 6.56-5.456 14.56-3.68 22.72 1.76 8 6.4 14.72 12.64 19.2l36.96 26.56c-4.8 19.52-7.36 40-7.36 61.12 0 21.12 2.56 41.6 7.36 61.12l-36.96 26.56c-6.24 4.464-10.88 11.184-12.64 19.184-1.76 8.176-0.16 16.176 3.68 22.72l35.024 60.816c3.84 6.544 9.92 11.824 17.92 14.384 7.84 2.56 15.84 1.92 22.88-1.28l41.44-18.72c29.456 28.16 65.616 49.44 105.92 61.12l4.48 45.28c0.8 7.664 4.336 15.024 10.4 20.48 6.08 5.6 13.744 8.32 21.44 8.32l70.08 0c7.664 0 15.36-2.72 21.44-8.32 6.24-5.456 9.616-12.816 10.4-20.48l4.464-45.28c40.336-11.68 76.48-32.976 105.92-61.12l41.44 18.72c7.04 3.2 15.2 3.84 23.04 1.28s14.08-7.84 17.92-14.384l35.024-60.816c3.84-6.544 5.28-14.544 3.536-22.72-1.76-8-6.4-14.72-12.64-19.184l-36.976-26.56c4.816-19.536 7.36-40 7.36-61.12 0-21.12-2.544-41.6-7.36-61.12l36.976-26.56C803.824 419.84 808.464 413.12 810.24 405.12zM771.984 394.56c-0.8 4-3.024 7.36-6.08 9.6l-16.464 12.16-26.736 19.52c4.176 11.36 7.376 23.2 9.616 35.36 2.384 13.28 3.664 26.88 3.664 40.8s-1.28 27.52-3.664 40.8c-2.24 12.16-5.44 24-9.616 35.36l26.736 19.536 16.464 12.16c3.04 2.24 5.28 5.6 6.08 9.6 0.976 4 0.176 8-1.744 11.2l-17.616 30.72c-1.92 3.2-4.96 5.92-8.96 7.2-3.84 1.28-7.84 0.96-11.36-0.64l-18.56-8.16-30.56-13.456c-0.16 0.336-0.48 0.64-0.96 0.976-0.336 0.32-0.64 0.8-0.976 1.12l-0.16 0.16c-0.16 0.16-0.32 0.32-0.32 0.48-3.2 3.824-6.4 7.36-10.096 10.88-3.824 4-7.824 7.84-12.16 11.36-0.464 0.48-0.8 0.8-1.28 1.12-20.64 17.6-44.464 31.52-70.384 40.64-11.36 4.16-23.2 7.36-35.36 9.44l-3.68 32.96L545.6 785.76c-0.48 3.824-2.256 7.36-5.28 10.24-3.04 2.72-6.88 4-10.56 4l-35.36 0c-3.84 0-7.68-1.28-10.72-4-3.04-2.88-4.8-6.4-5.28-10.24l-2.24-20.336-3.68-32.96c-12.16-2.08-24-5.28-35.36-9.44-25.92-9.12-49.76-23.04-70.4-40.64-0.464-0.336-0.8-0.64-1.264-1.12-4.336-3.52-8.336-7.36-12.176-11.36-4.464-4.336-8.64-8.976-12.32-13.616l-30.72 13.456-18.56 8.16c-3.36 1.6-7.52 1.92-11.36 0.64s-7.04-4-8.8-7.2l-17.76-30.72c-1.92-3.2-2.56-7.2-1.76-11.2 0.816-4 3.04-7.36 6.096-9.6l16.464-12.16 26.72-19.536c-4.16-11.36-7.36-23.2-9.6-35.36-2.4-13.28-3.68-26.88-3.68-40.8s1.28-27.52 3.68-40.8c2.24-12.16 5.44-24 9.6-35.36l-26.72-19.68-16.32-12c-3.2-2.24-5.44-5.6-6.256-9.6-0.8-4-0.16-8 1.76-11.2l17.76-30.72c1.744-3.2 4.96-5.92 8.8-7.2s8-0.96 11.36 0.64l18.72 8.16 30.56 13.28c0-0.16 0.32-0.48 0.64-0.64 0.16-0.32 0.48-0.48 0.8-0.8 0.48-0.48 0.8-1.12 1.28-1.6 2.88-3.68 6.24-7.04 9.6-10.4 3.84-4 7.84-7.84 12.176-11.36 0.464-0.48 0.8-0.8 1.264-1.12 20.64-17.6 44.48-31.52 70.4-40.64 11.36-4.16 23.2-7.36 35.36-9.44l3.68-32.96 2.24-20.32c0.48-3.84 2.24-7.36 5.28-10.24 3.024-2.72 6.88-4 10.72-4l35.36 0c3.68 0 7.52 1.28 10.56 4 3.024 2.88 4.8 6.4 5.28 10.24l2.24 20.32 3.68 32.96c12.16 2.08 24 5.28 35.36 9.44 25.92 9.12 49.744 23.04 70.384 40.64 0.48 0.32 0.816 0.64 1.28 1.12 2.256 1.76 4.16 3.52 6.256 5.6 2.08 1.76 4 3.68 5.904 5.76 3.376 3.2 6.56 6.4 9.28 9.92 0.176 0.16 0.336 0.48 0.48 0.64 1.12 0.96 1.92 1.92 2.72 2.88l30.4-13.28 18.72-8.16c3.52-1.6 7.52-1.92 11.36-0.64 4 1.28 7.024 4 8.96 7.2l17.616 30.72C772.16 386.56 772.96 390.56 771.984 394.56z" p-id="13504" fill="#1296db"></path></svg>