<?xml version="1.0" standalone="no"?><!DOCTYPE svg PUBLIC "-//W3C//DTD SVG 1.1//EN" "http://www.w3.org/Graphics/SVG/1.1/DTD/svg11.dtd"><svg t="1552275511635" class="icon" style="" viewBox="0 0 1024 1024" version="1.1" xmlns="http://www.w3.org/2000/svg" p-id="6900" xmlns:xlink="http://www.w3.org/1999/xlink" width="200" height="200"><defs><style type="text/css"></style></defs><path d="M584.533333 388.266667c-34.133333-59.733333-115.2-59.733333-149.333333 0L170.666667 866.133333C128 938.666667 213.333333 1024 285.866667 981.333333l401.066666-234.666666 93.866667 162.133333-119.466667-68.266667c-21.333333-12.8-46.933333-4.266667-59.733333 17.066667-12.8 21.333333-4.266667 46.933333 17.066667 59.733333l119.466666 68.266667C810.666667 1024 896 938.666667 853.333333 866.133333L584.533333 388.266667z m-341.333333 516.266666L512 430.933333l132.266667 238.933334-401.066667 234.666666z" fill="#75C82B" p-id="6901"></path><path d="M776.533333 537.6c21.333333 4.266667 46.933333-12.8 46.933334-34.133333 0-12.8 4.266667-29.866667 4.266666-42.666667 0-170.666667-140.8-307.2-315.733333-307.2s-315.733333 136.533333-315.733333 307.2c0 12.8 0 29.866667 4.266666 42.666667 4.266667 21.333333 25.6 38.4 46.933334 34.133333 21.333333-4.266667 38.4-25.6 34.133333-46.933333 0-8.533333-4.266667-21.333333-4.266667-29.866667C281.6 337.066667 384 234.666667 512 234.666667s230.4 102.4 230.4 221.866666c0 12.8 0 21.333333-4.266667 29.866667-4.266667 25.6 12.8 46.933333 38.4 51.2z" fill="#75C82B" p-id="6902"></path><path d="M512 0C256 0 42.666667 204.8 42.666667 456.533333c0 59.733333 12.8 115.2 34.133333 166.4 8.533333 21.333333 34.133333 34.133333 55.466667 25.6 21.333333-8.533333 34.133333-34.133333 25.6-55.466666-17.066667-42.666667-25.6-85.333333-25.6-136.533334C128 251.733333 298.666667 85.333333 512 85.333333s384 166.4 384 371.2c0 46.933333-8.533333 93.866667-25.6 136.533334-8.533333 21.333333 0 46.933333 25.6 55.466666 21.333333 8.533333 46.933333 0 55.466667-25.6 21.333333-51.2 34.133333-106.666667 34.133333-166.4C981.333333 204.8 768 0 512 0z" fill="#75C82B" p-id="6903"></path><path d="M281.6 661.333333c12.8-21.333333 38.4-25.6 59.733333-17.066666l192 115.2c21.333333 12.8 25.6 38.4 17.066667 59.733333-12.8 21.333333-38.4 25.6-59.733333 17.066667L298.666667 721.066667c-21.333333-12.8-25.6-38.4-17.066667-59.733334z" fill="#75C82B" p-id="6904"></path></svg>