<?xml version="1.0" standalone="no"?><!DOCTYPE svg PUBLIC "-//W3C//DTD SVG 1.1//EN" "http://www.w3.org/Graphics/SVG/1.1/DTD/svg11.dtd"><svg t="1552271746942" class="icon" style="" viewBox="0 0 1024 1024" version="1.1" xmlns="http://www.w3.org/2000/svg" p-id="6163" xmlns:xlink="http://www.w3.org/1999/xlink" width="200" height="200"><defs><style type="text/css"></style></defs><path d="M553.6 521.6H712v120H553.6zM307.2 488.8c6.4 4.8 15.2 12 26.4 21.6 12.8 9.6 21.6 16.8 26.4 21.6 22.4-46.4 36.8-114.4 43.2-203.2h-62.4c-9.6 60-20.8 113.6-33.6 160z" fill="#459df5" p-id="6164"></path><path d="M509.6 11.2C272.8 11.2 80 211.2 80 458.4c0 198.4 277.6 472.8 386.4 540 26.4 16 59.2 16 85.6 0 108.8-66.4 386.4-340.8 386.4-540 0-247.2-192-447.2-428.8-447.2z m-76 664l-60-50.4c-25.6 32-61.6 66.4-108 103.2l-40.8-48c44.8-32 79.2-64.8 103.2-98.4l-84-76.8c12.8-46.4 24.8-105.6 36-176.8h-50.4v-57.6h60L304 155.2l62.4 7.2c-4 20-8.8 46.4-12.8 79.2 0.8-3.2 0 1.6-1.6 13.6 0.8-4.8 0.8-9.6 1.6-13.6-0.8 3.2-1.6 12-4 28h110.4V328c-8 108.8-25.6 189.6-52.8 244l69.6 60-43.2 43.2zM460 352c14.4-8 28.8-21.6 43.2-40.8 28.8-40 59.2-92 91.2-156l64.8 24C614.4 249.6 576 305.6 544 347.2c27.2-1.6 72.8-4 136.8-7.2-9.6 1.6 0 1.6 28.8 0-3.2-6.4-8.8-15.2-16.8-26.4L664 263.2l50.4-26.4c24 35.2 53.6 84.8 88.8 148.8 4.8 9.6 8.8 16.8 12 21.6L760 436c-6.4-12.8-13.6-26.4-21.6-40.8-97.6 3.2-163.2 6.4-196 9.6-22.4 0-40.8 2.4-55.2 7.2L460 352z m313.6 378.4h-62.4v-36H553.6v36h-62.4V467.2h282.4v263.2z" fill="#459df5" p-id="6165"></path></svg>