<?xml version="1.0" standalone="no"?><!DOCTYPE svg PUBLIC "-//W3C//DTD SVG 1.1//EN" "http://www.w3.org/Graphics/SVG/1.1/DTD/svg11.dtd"><svg class="icon" width="16px" height="16.00px" viewBox="0 0 1024 1024" version="1.1" xmlns="http://www.w3.org/2000/svg"><path fill="#515151" d="M403.911111 119.466667c153.6 0 284.444444 125.155556 284.444445 284.444444 0 62.577778-17.066667 119.466667-51.2 164.977778-11.377778 17.066667-56.888889 56.888889-68.266667 68.266667-51.2 28.444444-102.4 45.511111-159.288889 45.511111-153.6 0-284.444444-125.155556-284.444444-284.444445-5.688889-153.6 119.466667-278.755556 278.755555-278.755555z m0-62.577778C210.488889 56.888889 56.888889 210.488889 56.888889 403.911111s153.6 347.022222 347.022222 347.022222c73.955556 0 142.222222-22.755556 199.111111-62.577777l261.688889 261.688888c11.377778 5.688889 28.444444 22.755556 51.2 22.755556 11.377778 0 22.755556-5.688889 34.133333-17.066667 28.444444-28.444444 11.377778-68.266667-5.688888-85.333333-5.688889-5.688889-182.044444-176.355556-267.377778-261.688889 39.822222-56.888889 68.266667-125.155556 68.266666-204.8-11.377778-193.422222-164.977778-347.022222-341.333333-347.022222z" /></svg>