<?xml version="1.0" standalone="no"?><!DOCTYPE svg PUBLIC "-//W3C//DTD SVG 1.1//EN" "http://www.w3.org/Graphics/SVG/1.1/DTD/svg11.dtd"><svg class="icon" width="16px" height="16.00px" viewBox="0 0 1024 1024" version="1.1" xmlns="http://www.w3.org/2000/svg"><path fill="#515151" d="M465.454545 232.727273H372.363636v139.636363H232.727273v93.090909h139.636363v139.636364h93.090909v-139.636364h139.636364V372.363636h-139.636364V232.727273z m280.576 447.488A416.721455 416.721455 0 0 0 837.818182 418.909091c0-231.377455-187.531636-418.909091-418.909091-418.909091S0 187.531636 0 418.909091s187.531636 418.909091 418.909091 418.909091c98.909091 0 189.626182-34.443636 261.306182-91.787637l209.780363 209.780364 65.815273-65.815273-209.780364-209.780363zM418.909091 744.727273A325.818182 325.818182 0 1 1 418.909091 93.090909a325.818182 325.818182 0 0 1 0 651.636364z" /></svg>