<?xml version="1.0" standalone="no"?><!DOCTYPE svg PUBLIC "-//W3C//DTD SVG 1.1//EN" "http://www.w3.org/Graphics/SVG/1.1/DTD/svg11.dtd"><svg class="icon" width="16px" height="16.00px" viewBox="0 0 1024 1024" version="1.1" xmlns="http://www.w3.org/2000/svg"><path fill="#515151" d="M866.461538 295.384615c0-43.323077-35.446154-78.769231-78.76923-78.76923H498.215385c-35.446154 0-68.923077-39.384615-68.923077-39.384616l-49.23077-59.076923s-23.630769-39.384615-68.923076-39.384615H236.307692C192.984615 78.769231 157.538462 114.215385 157.538462 157.538462v177.230769h708.923076v-39.384616z m57.107693 118.153847H100.430769c-39.384615 0-68.923077 37.415385-59.076923 74.830769l112.246154 413.538461c7.876923 25.6 31.507692 43.323077 59.076923 43.323077h600.615385c27.569231 0 53.169231-17.723077 59.076923-43.323077l112.246154-413.538461c7.876923-37.415385-21.661538-74.830769-61.046154-74.830769z" /></svg>